# AST/ASF file generated using VICON BodyLanguage
# -----------------------------------------------
:version 1.10
:name VICON
:units
  mass 1.0
  length 0.45
  angle deg
:documentation
   .ast/.asf automatically generated from VICON data using
   VICON BodyBuilder and BodyLanguage model FoxedUp or BRILLIANT.MOD
:root
   order TX TY TZ RX RY RZ
   axis XYZ
   position 0 0 0  
   orientation 0 0 0 
:bonedata
  begin
     id 1 
     name lhipjoint
     direction 0.611804 -0.747784 0.257906 
     length 2.29243 
     axis 0 0 0  XYZ
  end
  begin
     id 2 
     name lfemur
     direction 0.34202 -0.939693 0  
     length 7.31159  
     axis 0 0 20  XYZ
    dof rx ry rz
    limits (-160.0 20.0)
           (-70.0 70.0)
           (-60.0 70.0)
  end
  begin
     id 3 
     name ltibia
     direction 0.34202 -0.939693 0   
     length 7.33391   
     axis 0 0 20   XYZ
    dof rx
    limits (-10.0 170.0)
  end
  begin
     id 4 
     name lfoot
     direction 0.122263 -0.335914 0.933924   
     length 1.76083   
     axis -90 7.62852e-016 20   XYZ
    dof rx rz
    limits (-45.0 90.0)
           (-70.0 20.0)
  end
  begin
     id 5 
     name ltoes
     direction 1.53533e-011 -4.2177e-011 1   
     length 0.879206   
     axis -90 7.62852e-016 20   XYZ
    dof rx
    limits (-90.0 20.0)
  end
  begin
     id 6 
     name rhipjoint
     direction -0.646469 -0.721248 0.248754   
     length 2.37677  
     axis 0 0 0  XYZ 
  end
  begin
     id 7 
     name rfemur
     direction -0.34202 -0.939693 0   
     length 7.18623   
     axis 0 0 -20   XYZ
    dof rx ry rz
    limits (-160.0 20.0)
           (-70.0 70.0)
           (-70.0 60.0)
  end
  begin
     id 8 
     name rtibia
     direction -0.34202 -0.939693 0   
     length 7.36567   
     axis 0 0 -20   XYZ
    dof rx
    limits (-10.0 170.0)
 end
 begin
     id 9 
     name rfoot
     direction -0.126681 -0.348054 0.928876   
     length 1.71902  
     axis -90 -7.62852e-016 -20   XYZ
    dof rx rz
    limits (-45.0 90.0)
           (-20.0 70.0)
  end
  begin
     id 10 
     name rtoes
     direction -1.53551e-011 -4.21898e-011 1   
     length 0.857792   
     axis -90 -7.62852e-016 -20   XYZ
    dof rx
    limits (-90.0 20.0)
  end
  begin
     id 11 
     name lowerback
     direction 0.0106509 0.999778 0.0181844   
     length 2.07668   
     axis 0 0 0   XYZ
    dof rx ry rz
    limits (-20.0 45.0)
           (-30.0 30.0)
           (-30.0 30.0)
  end
  begin
     id 12 
     name upperback
     direction -0.00456018 0.999989 -0.000590935   
     length 2.08011   
     axis 0 0 0   XYZ
    dof rx ry rz
    limits (-20.0 45.0)
           (-30.0 30.0)
           (-30.0 30.0)
  end
  begin
     id 13 
     name thorax
     direction -0.00910382 0.999916 -0.00923765   
     length 2.07397   
     axis 0 0 0   XYZ
    dof rx ry rz
    limits (-20.0 45.0)
           (-30.0 30.0)
           (-30.0 30.0)
  end
  begin
     id 14 
     name lowerneck
     direction 0.00171967 0.99778 0.0665733   
     length 1.67556   
     axis 0 0 0   XYZ
    dof rx ry rz
    limits (-20.0 45.0)
           (-30.0 30.0)
           (-30.0 30.0)
  end
  begin
     id 15 
     name upperneck
     direction -0.0143166 0.991302 -0.130828   
     length 1.68462   
     axis 0 0 0   XYZ
    dof rx ry rz
    limits (-20.0 45.0)
           (-30.0 30.0)
           (-30.0 30.0)
  end
  begin
     id 16
     name head
     direction -0.00606378 0.998665 -0.0512995  
     length 1.69269  
     axis 0 0 0   XYZ
    dof rx ry rz
    limits (-20.0 45.0)
           (-30.0 30.0)
           (-30.0 30.0)
  end
  begin
     id 17 
     name lclavicle
     direction 0.9638 0.179341 0.197297  
     length 4.12888  
     axis 0 0 0   XYZ
    dof ry rz
    limits (-20.0 10.0)
           (0.0 20.0)
  end
  begin
     id 18 
     name lhumerus
     direction 1 -4.48972e-011 -2.47351e-027   
     length 5.01834   
     axis -180 -30 -90   XYZ
    dof rx ry rz
    limits (-60.0 90.0)
           (-90.0 90.0)
           (-90.0 90.0)
  end
  begin
     id 19
     name lradius
     direction 1 -4.48965e-011 1.51591e-026   
     length 3.4869   
     axis -180 -30 -90   XYZ
    dof rx
    limits (-10.0 170.0)
  end
  begin
     id 20
     name lwrist
     direction 1 -4.48957e-011 2.70032e-026   
     length 1.74345   
     axis -1.81515e-014 90 90   XYZ
    dof ry
    limits (-180.0 0.0)
 end
  begin
     id 21 
     name lhand
     direction 1 -4.48951e-011 5.40064e-026   
     length 0.76799   
     axis -3.44607e-014 90 90   XYZ
    dof rx rz
    limits (-90.0 90.0)
           (-45.0 45.0)
  end
  begin
     id 22 
     name lfingers
     direction 1 -4.48971e-011 1.08013e-025   
     length 0.619174   
     axis -6.89214e-014 90 90   XYZ
    dof rx
    limits (0.0 90.0)
  end
  begin
     id 23
     name lthumb
     direction 0.707107 -6.34931e-011 0.707107   
     length 0.889013   
     axis -90 45 2.85299e-015   XYZ
    dof rx rz
    limits (-45.0 45.0)
           (-45.0 45.0)
  end
  begin
     id 24 
     name rclavicle
     direction -0.961409 0.252588 0.109054   
     length 4.04305  
     axis 0 0 0   XYZ 
    dof ry rz
    limits (-10.0 20.0)
           (-20.0 0.0)
  end
  begin
     id 25 
     name rhumerus
     direction -1 -4.4897e-011 1.33872e-017  
     length 4.70164   
     axis -180 30 90   XYZ
    dof rx ry rz
    limits (-90.0 60.0)
           (-90.0 90.0)
           (-90.0 90.0)
  end
  begin
     id 26 
     name rradius
     direction -1 -4.48954e-011 1.83844e-026   
     length 3.49911   
     axis -180 30 90   XYZ
    dof rx
    limits (-10.0 170.0)
  end
  begin
     id 27 
     name rwrist
     direction -1 -4.49008e-011 2.70032e-026   
     length 1.74955   
     axis -1.81515e-014 -90 -90   XYZ
    dof ry
    limits (-180.0 0.0)
  end
  begin
     id 28
     name rhand
     direction -1 -4.48916e-011 5.40064e-026   
     length 0.739335   
     axis -3.44607e-014 -90 -90   XYZ
    dof rx rz
    limits (-90.0 90.0)
           (-45.0 45.0)
  end
  begin
     id 29
     name rfingers
     direction -1 -4.48987e-011 1.08013e-025   
     length 0.596071   
     axis -6.89214e-014 -90 -90   XYZ
    dof rx
    limits (0.0 90.0)
  end
  begin
     id 30
     name rthumb
     direction -0.707107 -6.34935e-011 0.707107   
     length 0.855843   
     axis -90 -45 -2.85299e-015   XYZ
    dof rx rz
    limits (-45.0 45.0)
           (-45.0 45.0)
  end
:hierarchy
  begin
    root lhipjoint rhipjoint lowerback
    lhipjoint lfemur
    lfemur ltibia
    ltibia lfoot
    lfoot ltoes
    rhipjoint rfemur
    rfemur rtibia
    rtibia rfoot
    rfoot rtoes
    lowerback upperback
    upperback thorax
    thorax lowerneck lclavicle rclavicle
    lowerneck upperneck
    upperneck head
    lclavicle lhumerus
    lhumerus lradius
    lradius lwrist
    lwrist lhand lthumb
    lhand lfingers
    rclavicle rhumerus
    rhumerus rradius
    rradius rwrist
    rwrist rhand rthumb
    rhand rfingers
  end

#!OML:ASF I:\salsa\salsa 7_09\Patient 1\Session 1\dancermale.ASF
:FULLY-SPECIFIED
:DEGREES
857
root -7.41578 16.8907 0.284101 -561.139 109.014 -195.997
lowerback 23.1658 4.49375 10.1514
upperback 2.98703 9.16595 4.70393
thorax -8.78154 4.20632 -3.22568
lowerneck -5.51102 -3.14412 2.30003
upperneck 9.14698 -3.73701 -6.45791
head 3.81381 -2.02046 -2.76431
rclavicle -9.24349e-014 1.59028e-015
rhumerus -37.1897 12.0682 -96.9481
rradius 88.2898
rwrist 26.079
rhand -37.7446 -9.09451
rfingers 7.12502
rthumb -10.7929 -38.7972
lclavicle -9.24349e-014 1.59028e-015
lhumerus 44.5529 13.9791 66.0958
lradius 79.5356
lwrist 46.0415
lhand -28.0524 84.6853
lfingers 7.12502
lthumb -1.43653 605.34
rfemur -30.2587 -2.23712 23.2747
rtibia 75.11
rfoot -9.5738 -2.46667
rtoes -17.9812
lfemur -0.486811 8.50018 -16.0352
ltibia 25.8839
lfoot -20.4813 12.3091
ltoes -32.0277
858
root -7.52225 16.8898 0.260758 -559.847 109.627 -195.366
lowerback 22.5483 4.53897 9.94809
upperback 2.91695 9.09588 4.76032
thorax -8.57908 4.19189 -2.97571
lowerneck -5.65653 -2.89896 2.50745
upperneck 9.37886 -3.38632 -6.74117
head 3.93797 -1.85437 -2.89833
rclavicle -9.14409e-015 -3.49861e-014
rhumerus -39.0762 13.9303 -99.3059
rradius 89.0986
rwrist 25.7429
rhand -37.835 -9.08651
rfingers 7.12502
rthumb -10.8801 -38.7846
lclavicle -9.14409e-015 -3.49861e-014
lhumerus 46.3331 14.1631 64.8441
lradius 75.3135
lwrist 41.483
lhand -26.0699 83.7992
lfingers 7.12502
lthumb 0.478266 606.222
rfemur -30.1139 -2.0227 23.3036
rtibia 78.3913
rfoot -8.2378 -2.1607
rtoes -17.3725
lfemur -1.69327 9.50322 -15.9381
ltibia 26.1489
lfoot -20.5142 11.9173
ltoes -31.6975
859
root -7.61823 16.8904 0.243743 -558.485 110.289 -194.715
lowerback 21.7763 4.56112 9.74573
upperback 2.85834 8.96828 4.75689
thorax -8.27342 4.15521 -2.75982
lowerneck -5.72788 -2.61014 2.78381
upperneck 9.83957 -2.95063 -7.2369
head 3.71033 -1.6774 -2.79947
rclavicle -3.97569e-016 -3.65764e-014
rhumerus -40.7404 15.5644 -101.528
rradius 89.7252
rwrist 25.4266
rhand -36.7731 -8.62374
rfingers 7.12502
rthumb -9.85574 -38.3731
lclavicle -3.97569e-016 -3.65764e-014
lhumerus 48.0813 14.3573 63.271
lradius 71.1011
lwrist 37.572
lhand -24.2099 82.7166
lfingers 7.12502
lthumb 2.27468 607.316
rfemur -29.571 -1.85642 23.2655
rtibia 80.7746
rfoot -6.86563 -2.04115
rtoes -18.0522
lfemur -2.67164 10.2778 -15.8875
ltibia 25.9592
lfoot -20.2623 11.5371
ltoes -31.3398
860
root -7.70223 16.8914 0.23616 -557.125 110.993 -193.99
lowerback 21.1921 4.61243 9.55108
upperback 2.61543 8.91001 4.6437
thorax -8.24472 4.12262 -2.71454
lowerneck -5.59226 -2.36335 3.25613
upperneck 10.115 -2.6135 -7.52639
head 3.77615 -1.50655 -2.9533
rclavicle -1.74931e-014 -3.49861e-014
rhumerus -42.4916 16.6279 -103.631
rradius 90.2338
rwrist 25.2465
rhand -34.493 -7.64457
rfingers 7.12502
rthumb -7.65544 -37.486
lclavicle -1.74931e-014 -3.49861e-014
lhumerus 49.601 14.2515 61.3757
lradius 67.0711
lwrist 34.6364
lhand -22.4883 81.4932
lfingers 7.12502
lthumb 3.93724 608.563
rfemur -28.5124 -1.63496 23.1326
rtibia 82.1691
rfoot -5.84248 -1.82911
rtoes -17.2223
lfemur -3.56905 10.6026 -15.9873
ltibia 25.846
lfoot -19.7895 11.6549
ltoes -31.5331
861
root -7.7784 16.8966 0.234629 -555.59 111.746 -193.258
lowerback 20.629 4.68908 9.27242
upperback 2.1249 8.88824 4.50191
thorax -8.50533 4.08326 -2.68043
lowerneck -5.25979 -2.11001 3.68673
upperneck 10.4792 -2.24777 -7.8177
head 3.8403 -1.31819 -3.09848
rclavicle 6.08281e-014 1.27222e-014
rhumerus -44.381 17.3959 -105.547
rradius 90.7518
rwrist 25.0389
rhand -31.7012 -6.83761
rfingers 7.12502
rthumb -4.96024 -36.7596
lclavicle 6.08281e-014 1.27222e-014
lhumerus 50.6902 13.9649 59.4336
lradius 63.465
lwrist 31.7882
lhand -20.6564 80.5412
lfingers 7.12502
lthumb 5.70608 609.556
rfemur -27.2489 -1.36081 22.9287
rtibia 82.6574
rfoot -5.30309 -1.87069
rtoes -16.6527
lfemur -4.73944 10.5164 -16.2588
ltibia 25.8958
lfoot -19.321 12.2024
ltoes -31.6105
862
root -7.8497 16.9085 0.23622 -553.483 112.53 -192.265
lowerback 19.3427 4.77494 8.53426
upperback 1.81983 8.6991 4.53454
thorax -8.2726 4.02553 -2.0879
lowerneck -5.60523 -1.65923 3.16598
upperneck 11.2264 -1.58075 -7.48385
head 4.17386 -1.00435 -2.89566
rclavicle 3.57812e-014 1.74931e-014
rhumerus -45.7433 18.7153 -106.905
rradius 91.1697
rwrist 24.3854
rhand -27.4313 -5.32444
rfingers 7.12502
rthumb -0.836641 -35.3025
lclavicle 3.57812e-014 1.74931e-014
lhumerus 51.6868 14.2115 57.8364
lradius 60.2432
lwrist 28.8573
lhand -18.6892 79.8103
lfingers 7.12502
lthumb 7.60517 610.346
rfemur -26.0802 -0.976384 22.5151
rtibia 82.2135
rfoot -5.3167 -2.02926
rtoes -18.1288
lfemur -6.35523 10.4895 -16.7206
ltibia 26.1209
lfoot -18.9689 12.7395
ltoes -31.3767
863
root -7.91256 16.922 0.242005 -550.841 113.372 -190.918
lowerback 17.311 4.86612 7.44069
upperback 1.77776 8.37004 4.62677
thorax -7.39693 3.95397 -1.12547
lowerneck -6.57378 -1.09781 1.92411
upperneck 12.2721 -0.757286 -6.47689
head 4.71778 -0.624692 -2.35975
rclavicle -1.04958e-013 -2.38542e-014
rhumerus -46.4116 20.4609 -107.763
rradius 91.3734
rwrist 23.6337
rhand -21.8367 -3.8
rfingers 7.12502
rthumb 4.56648 -33.7308
lclavicle -1.04958e-013 -2.38542e-014
lhumerus 52.897 14.9315 56.6877
lradius 57.3163
lwrist 26.7146
lhand -16.8987 79.0218
lfingers 7.12502
lthumb 9.33313 611.205
rfemur -24.8603 -0.504752 21.8212
rtibia 80.8105
rfoot -5.20085 -1.94325
rtoes -17.0058
lfemur -8.13029 10.5761 -17.3721
ltibia 26.2778
lfoot -18.6295 13.1804
ltoes -30.8391
864
root -7.96856 16.9322 0.254439 -548.029 114.384 -189.509
lowerback 15.2339 4.99531 6.47175
upperback 1.57583 8.14722 4.52184
thorax -6.59854 3.90477 -0.473056
lowerneck -6.84091 -0.651797 1.70482
upperneck 12.7173 -0.130239 -6.25983
head 4.92935 -0.323569 -2.22587
rclavicle 1.03368e-014 -4.13472e-014
rhumerus -46.8956 21.9888 -108.604
rradius 91.5052
rwrist 22.5924
rhand -15.598 -2.66838
rfingers 7.12502
rthumb 10.588 -32.3817
lclavicle 1.03368e-014 -4.13472e-014
lhumerus 54.1407 15.3957 55.6301
lradius 54.6858
lwrist 25.4687
lhand -15.647 78.2113
lfingers 7.12502
lthumb 10.5407 612.073
rfemur -23.5759 0.175818 21.0111
rtibia 78.3687
rfoot -4.62147 -1.58504
rtoes -15.6803
lfemur -9.93027 10.8649 -18.0302
ltibia 26.3403
lfoot -18.3858 13.5017
ltoes -29.8725
865
root -8.02602 16.9458 0.275574 -544.723 115.529 -187.996
lowerback 12.8858 5.24238 5.49585
upperback 1.12038 8.10098 4.21101
thorax -5.87138 3.92246 -0.051299
lowerneck -6.44851 -0.316532 2.5931
upperneck 12.6102 0.310876 -6.95627
head 4.84659 -0.0993912 -2.56026
rclavicle -4.11484e-014 -1.01778e-013
rhumerus -47.294 23.1836 -109.405
rradius 91.594
rwrist 21.7809
rhand -9.04461 -1.56597
rfingers 7.12502
rthumb 16.9035 -30.8504
lclavicle -4.11484e-014 -1.01778e-013
lhumerus 55.5196 15.4323 54.8746
lradius 52.26
lwrist 25.0635
lhand -14.9863 77.8207
lfingers 7.12502
lthumb 11.1779 612.497
rfemur -22.6092 1.02206 20.0691
rtibia 74.9709
rfoot -3.83779 -1.70977
rtoes -15.7852
lfemur -12.231 11.3239 -18.8155
ltibia 26.4934
lfoot -18.0828 13.7327
ltoes -28.914
866
root -8.08917 16.9535 0.295137 -543.405 116.953 -187.703
lowerback 11.7181 5.42798 5.21343
upperback 0.725338 8.21093 3.9562
thorax -5.63775 3.98115 -0.0811826
lowerneck -6.29091 0.0625243 3.04259
upperneck 12.9303 0.812976 -7.06723
head 4.94398 0.161576 -2.64219
rclavicle 4.07509e-014 2.70347e-014
rhumerus -47.805 24.2711 -110.295
rradius 91.6732
rwrist 21.7403
rhand -3.14431 -0.236641
rfingers 7.12502
rthumb 22.5755 -28.9366
lclavicle 4.07509e-014 2.70347e-014
lhumerus 56.9344 15.2799 54.3775
lradius 49.8806
lwrist 24.74
lhand -14.2459 77.9541
lfingers 7.12502
lthumb 11.892 612.404
rfemur -20.4474 2.12529 19.7011
rtibia 70.6335
rfoot -3.24667 -1.45938
rtoes -9.01855
lfemur -13.4096 11.9663 -18.7716
ltibia 26.4869
lfoot -17.6955 14.0119
ltoes -28.0907
867
root -8.16068 16.9596 0.319792 -542.669 118.36 -187.695
lowerback 10.9669 5.51682 4.76572
upperback 0.387691 8.23351 3.95916
thorax -5.6382 4.00142 0.218387
lowerneck -6.02763 0.538182 3.18516
upperneck 13.1878 1.48572 -7.18551
head 5.01549 0.495108 -2.66381
rclavicle 8.74653e-014 3.33958e-014
rhumerus -48.5054 25.75 -110.978
rradius 91.7884
rwrist 22.7272
rhand 1.98644 1.80415
rfingers 7.12502
rthumb 27.4916 -26.2091
lclavicle 8.74653e-014 3.33958e-014
lhumerus 58.0632 15.339 53.9202
lradius 47.4939
lwrist 24.3693
lhand -13.5273 77.6244
lfingers 7.12502
lthumb 12.5848 612.775
rfemur -17.759 3.23854 19.5124
rtibia 65.4792
rfoot -4.77904 -0.833676
rtoes -5.39066
lfemur -14.3696 12.478 -18.5075
ltibia 26.7333
lfoot -17.4326 14.4101
ltoes -27.2559
868
root -8.23809 16.9651 0.348378 -542.238 119.753 -187.79
lowerback 10.4415 5.54501 4.25672
upperback 0.131506 8.19456 4.05665
thorax -5.70152 3.99585 0.638151
lowerneck -5.71432 1.07354 3.20144
upperneck 13.3099 2.24176 -7.26781
head 5.04207 0.867497 -2.64699
rclavicle 7.95139e-016 -1.59028e-015
rhumerus -49.2036 27.4839 -111.619
rradius 91.8221
rwrist 24.3069
rhand 4.6058 3.25958
rfingers 7.12502
rthumb 29.9939 -24.3288
lclavicle 7.95139e-016 -1.59028e-015
lhumerus 59.1207 15.4802 53.5842
lradius 45.126
lwrist 23.8211
lhand -12.8901 76.8233
lfingers 7.12502
lthumb 13.1991 613.615
rfemur -14.9526 4.27368 19.4827
rtibia 60.1104
rfoot -7.32165 -0.0919625
rtoes -9.11946
lfemur -15.2409 12.8544 -18.1267
ltibia 27.2655
lfoot -17.2886 14.8395
ltoes -26.2706
869
root -8.31585 16.974 0.376459 -542.304 121.235 -188.23
lowerback 10.2637 5.62561 4.21564
upperback -0.0747856 8.29225 4.00121
thorax -5.81664 4.03911 0.59611
lowerneck -5.75584 1.58092 3.33525
upperneck 13.5171 2.91415 -7.1579
head 5.15088 1.20551 -2.59362
rclavicle -1.45709e-013 -4.6118e-014
rhumerus -49.5049 28.8468 -112.287
rradius 91.7114
rwrist 25.4679
rhand 5.21289 4.04717
rfingers 7.12502
rthumb 30.573 -23.4348
lclavicle -1.45709e-013 -4.6118e-014
lhumerus 60.2923 15.2849 53.1385
lradius 42.9319
lwrist 22.7966
lhand -12.294 76.0983
lfingers 7.12502
lthumb 13.7737 614.378
rfemur -11.9861 5.28089 19.7474
rtibia 54.4628
rfoot -9.29341 0.457682
rtoes -12.35
lfemur -15.9347 13.1928 -17.4735
ltibia 27.9861
lfoot -17.1304 15.4416
ltoes -25.1108
870
root -8.39835 16.9852 0.400786 -542.588 122.746 -189.035
lowerback 10.0074 5.77992 4.43313
upperback -0.181345 8.50949 3.97779
thorax -5.74876 4.14038 0.446794
lowerneck -6.09024 2.03369 3.55738
upperneck 13.612 3.49714 -7.14164
head 5.27368 1.49152 -2.58547
rclavicle -2.32578e-014 -3.65764e-014
rhumerus -49.248 30.0581 -112.581
rradius 91.4192
rwrist 25.9385
rhand 4.91525 3.86598
rfingers 7.12502
rthumb 30.2891 -23.6685
lclavicle -2.32578e-014 -3.65764e-014
lhumerus 61.7656 14.9838 52.9459
lradius 40.7543
lwrist 21.112
lhand -11.5475 75.5985
lfingers 7.12502
lthumb 14.493 614.928
rfemur -9.87409 6.21082 20.3372
rtibia 49.8001
rfoot -10.9242 0.728595
rtoes -15.344
lfemur -16.8688 13.5828 -16.5652
ltibia 28.9359
lfoot -16.8546 16.0708
ltoes -23.8677
871
root -8.4814 17.0009 0.42231 -542.994 124.213 -189.916
lowerback 9.62757 5.91931 4.62584
upperback -0.0729723 8.69165 4.10554
thorax -5.4111 4.23913 0.50002
lowerneck -6.45972 2.54144 3.56432
upperneck 13.4744 4.16488 -7.1536
head 5.33366 1.80739 -2.5408
rclavicle 7.73272e-014 -1.59028e-015
rhumerus -48.5735 31.4795 -112.426
rradius 91.0411
rwrist 25.5934
rhand 4.56304 3.69898
rfingers 7.12502
rthumb 29.9531 -23.8968
lclavicle 7.73272e-014 -1.59028e-015
lhumerus 63.48 14.8843 53.4008
lradius 38.6277
lwrist 18.5516
lhand -10.4503 74.9551
lfingers 7.12502
lthumb 15.55 615.65
rfemur -8.36582 7.00679 21.0903
rtibia 46.0545
rfoot -12.1617 0.693816
rtoes -17.5549
lfemur -17.8762 14.4029 -15.4905
ltibia 30.1956
lfoot -16.6766 16.1872
ltoes -23.0334
